<?xml version="1.0" standalone="no"?><!DOCTYPE svg PUBLIC "-//W3C//DTD SVG 1.1//EN" "http://www.w3.org/Graphics/SVG/1.1/DTD/svg11.dtd"><svg t="1563784689771" class="icon" viewBox="0 0 1024 1024" version="1.1" xmlns="http://www.w3.org/2000/svg" p-id="725" xmlns:xlink="http://www.w3.org/1999/xlink" width="48" height="48"><defs><style type="text/css"></style></defs><path d="M790.940444 238.506667a27.363556 27.363556 0 0 1-39.808 37.546666 334.520889 334.520889 0 0 0-123.861333-82.844444c-173.226667-66.503111-367.573333 20.024889-434.062222 193.251555-66.503111 173.226667 20.024889 367.573333 193.251555 434.062223a335.018667 335.018667 0 0 0 274.844445-15.260445 334.563556 334.563556 0 0 0 159.232-177.991111 27.363556 27.363556 0 0 1 51.086222 19.626667 389.262222 389.262222 0 0 1-185.173333 206.976 389.745778 389.745778 0 0 1-319.601778 17.749333C165.404444 794.311111 64.782222 568.32 142.108444 366.848 219.448889 165.404444 445.44 64.782222 646.883556 142.108444a389.248 389.248 0 0 1 144.071111 96.398223z" fill="#F79C1F" p-id="726"></path><path d="M526.222222 512m-384 0a384 384 0 1 0 768 0 384 384 0 1 0-768 0Z" fill="#ED8649" p-id="727"></path><path d="M492.088889 182.044444a22.755556 22.755556 0 1 1 45.511111 0v31.914667a22.755556 22.755556 0 1 1-45.511111 0V182.044444zM477.866667 796.444444a22.755556 22.755556 0 1 1 45.511111 0v31.914667a22.755556 22.755556 0 1 1-45.511111 0V796.444444zM182.044444 546.133333a22.755556 22.755556 0 1 1 0-45.511111h31.914667a22.755556 22.755556 0 1 1 0 45.511111H182.044444zM441.045333 428.174222a1.991111 1.991111 0 0 0-0.341333-0.497778l0.128 0.113778 0.213333 0.384z m125.681778 211.484445a21.717333 21.717333 0 0 1-10.453333 2.673777h-166.968889c-5.219556 0-10.254222-1.877333-14.208-5.304888-35.512889-30.72-35.512889-67.754667 0.853333-96.099556 3.825778-2.972444 8.533333-4.579556 13.368889-4.579556h122.88l-67.697778-50.744888c-2.645333-1.991111-16.128-12.117333-19.356444-14.577778a175.36 175.36 0 0 1-14.364445-11.861334c-13.511111-12.828444-18.631111-28.273778-6.101333-43.377777 3.498667-4.195556 7.822222-7.395556 13.326222-10.481778l59.904-34.659556c7.537778-4.693333 12.814222-7.196444 19.342223-8.419555 9.955556-1.848889 3.128889-3.370667 37.404444 5.717333l189.696 62.435556 127.530667-74.126223c8.931556-4.821333 19.057778-7.68 28.785777-7.68 19.811556 0 38.542222 10.951111 49.550223 28.572445 15.815111 27.207111 6.542222 62.407111-21.475556 78.364444L753.820444 537.031111l-187.107555 102.627556z" fill="#FFFFFF" p-id="728"></path></svg>