<?xml version="1.0" encoding="UTF-8"?>
<svg width="18px" height="18px" viewBox="0 0 18 18" version="1.1" xmlns="http://www.w3.org/2000/svg" xmlns:xlink="http://www.w3.org/1999/xlink">
    <!-- Generator: Sketch 54.1 (76490) - https://sketchapp.com -->
    <title>Icons/选择复制 7</title>
    <desc>Created with Sketch.</desc>
    <defs>
        <path d="M15.4285834,0.0010290691 L2.57145433,0.0010290691 C1.15716978,0.0010290691 2.14844e-05,1.15817033 2.14844e-05,2.57246192 L2.14844e-05,12.8581581 C2.14844e-05,14.2724427 1.15716275,15.429591 2.57145433,15.429591 L5.14288718,15.429591 L7.79667802,17.8493339 L7.79667798,17.8493339 C7.92603277,17.9467577 8.0834842,17.9996231 8.24542094,18.0000033 L8.2454209,18.0000033 C8.66064759,18.0015298 8.99849292,17.666159 9.00002054,17.2509323 C9.00002578,17.2495071 9.00002697,17.2480819 9.0000241,17.2466568 L9.0000241,15.4285754 L15.4285886,15.4285754 C16.8428732,15.4285754 18.0000215,14.2714342 18.0000215,12.8571426 L18.0000215,2.57144638 C18.0000215,1.15716183 16.8428802,1.35298944e-05 15.4285886,1.35298944e-05 L15.4285834,0.0010290691 Z M16.7142963,12.8581581 L16.7142963,12.8581001 C16.7140512,13.5680647 16.138606,14.1435616 15.4286414,14.143871 L9.0000769,14.143871 L9.00007697,14.143871 C8.29017038,14.1442866 7.71478068,14.7196756 7.71436406,15.4295839 L7.71436406,16.0340195 L6.00953949,14.4796139 L6.00953953,14.4796139 C5.77244695,14.2639028 5.46347702,14.1442894 5.14294005,14.1441224 L2.57145446,14.1441224 L2.57145441,14.1441224 C1.86148981,14.1438452 1.28601925,13.5683741 1.2857415,12.8584095 L1.2857415,2.5727133 L1.28574148,2.5727712 C1.28598669,1.86280661 1.86143178,1.28730968 2.57139638,1.28700028 L15.4285255,1.28700028 L15.4285254,1.28700028 C16.13849,1.28727743 16.7139606,1.8627486 16.7142383,2.57271319 L16.7142963,12.8581581 Z M13.500014,5.14387718 L4.50003424,5.14387718 L4.5000342,5.14387718 C4.14505278,5.14401579 3.85731662,5.43175046 3.85717775,5.78673364 L3.85717774,5.78670469 C3.85730034,6.1416861 4.14502289,6.42943457 4.50000431,6.42958927 L13.4999841,6.42958927 L13.4999841,6.42958927 C13.8549655,6.42945069 14.1427017,6.14171599 14.1428405,5.78673281 L14.1428406,5.78676185 C14.142718,5.43178043 13.8549954,5.14403197 13.500014,5.14387727 L13.500014,5.14387718 Z M13.500014,9.00100887 L4.50003424,9.00100887 L4.5000342,9.00100887 C4.14505278,9.00114748 3.85731662,9.28888215 3.85717775,9.64386533 L3.85717774,9.64383638 C3.85730034,9.9988178 4.14502289,10.2865663 4.50000431,10.286721 L13.4999841,10.286721 L13.4999841,10.286721 C13.8550235,10.286721 14.1428405,9.99890393 14.1428405,9.6438645 C14.1428406,9.28882507 13.8550235,9.00100805 13.4999841,9.00100805 L13.500014,9.00100887 Z" id="path-1"></path>
    </defs>
    <g id="电子病历" stroke="none" stroke-width="1" fill="none" fill-rule="evenodd">
        <g id="医学矢量图形编辑器" transform="translate(-419.000000, -280.000000)">
            <g id="Icons/文字复制" transform="translate(416.000000, 277.000000)">
                <g id="指标-注释-标注" transform="translate(-1.000000, -3.000000)"></g>
                <g id="Color" transform="translate(3.000000, 3.000000)">
                    <mask id="mask-2" fill="white">
                        <use xlink:href="#path-1"></use>
                    </mask>
                    <use id="蒙版" fill="#000000" fill-rule="nonzero" xlink:href="#path-1"></use>
                    <rect fill="#605D5A" mask="url(#mask-2)" x="-2.99995703" y="-2.99997294" width="24" height="24"></rect>
                </g>
            </g>
        </g>
    </g>
</svg>