<?xml version="1.0" standalone="no"?><!DOCTYPE svg PUBLIC "-//W3C//DTD SVG 1.1//EN"
        "http://www.w3.org/Graphics/SVG/1.1/DTD/svg11.dtd">
<svg t="1564371737900" class="icon" viewBox="0 0 1024 1024" version="1.1" xmlns="http://www.w3.org/2000/svg" p-id="8221"
     xmlns:xlink="http://www.w3.org/1999/xlink" width="18" height="18">
    <defs>
        <style type="text/css"></style>
    </defs>
    <path d="M291.221333 410.688c65.877333 0 119.488-53.589333 119.509333-119.488 0-65.877333-53.610667-119.488-119.509333-119.488-65.877333 0-119.488 53.610667-119.488 119.488C171.733333 357.098667 225.365333 410.688 291.221333 410.688zM291.221333 214.464c42.304 0 76.757333 34.432 76.778667 76.757333 0 42.346667-34.453333 76.757333-76.778667 76.757333s-76.757333-34.453333-76.757333-76.757333C214.464 248.896 248.896 214.464 291.221333 214.464z"
          p-id="8222" fill="#8a8a8a"></path>
    <path d="M855.424 0 168.554667 0C75.605333 0 0 75.626667 0 168.554667l0 637.696c0 0.085333 0 0.170667 0 0.234667L0 855.466667C0 948.373333 75.605333 1024 168.554667 1024L855.466667 1024c92.906667 0 168.533333-75.626667 168.533333-168.533333L1024 168.554667C1024 75.626667 948.373333 0 855.424 0zM168.554667 42.730667 168.554667 42.730667l686.869333 0.021333c69.376 0 125.824 56.448 125.824 125.802667l0 463.616L698.816 349.696c-8.362667-8.341333-21.845333-8.341333-30.208 0l-279.253333 279.253333-95.253333-95.253333c-8.384-8.384-21.866667-8.384-30.229333 0L42.730667 754.794667 42.730667 168.533333C42.730667 99.178667 99.178667 42.730667 168.554667 42.730667zM42.730667 855.424l0-40.213333 236.245333-236.16 402.218667 402.218667L168.554667 981.269333C99.178667 981.248 42.730667 924.8 42.730667 855.424zM855.424 981.248l-113.792 0L419.562667 659.178667 683.733333 395.029333l297.514667 297.536 0 162.858667C981.248 924.8 924.8 981.248 855.424 981.248z"
          p-id="8223" fill="#8a8a8a"></path>
</svg>