<?xml version="1.0" standalone="no"?><!DOCTYPE svg PUBLIC "-//W3C//DTD SVG 1.1//EN"
        "http://www.w3.org/Graphics/SVG/1.1/DTD/svg11.dtd">
<svg t="1564371283034" class="icon" viewBox="0 0 1024 1024" version="1.1" xmlns="http://www.w3.org/2000/svg" p-id="4771"
     width="18" height="18" xmlns:xlink="http://www.w3.org/1999/xlink">
    <defs>
        <style type="text/css"></style>
    </defs>
    <path d="M464.9 917.1c-193 0-350.1-157-350.1-350.1 0-192 156.3-349.1 348.3-350h0.1c5.1 0 10 2 13.6 5.6s5.7 8.5 5.7 13.6V532H795c10.3 0 18.7 8.1 19.2 18.3l0.3 5.2c0.2 3.8 0.5 7.6 0.5 11.4 0 193.1-157 350.2-350.1 350.2z m-20.9-661C282 266.9 153.3 402.5 153.3 567c0 171.8 139.8 311.6 311.6 311.6 170.7 0 309.7-137.9 311.6-308.1H463.3c-10.6 0-19.2-8.6-19.2-19.2l-0.1-295.2z"
          fill="#808080" p-id="4772"></path>
    <path d="M597.2 212.7c-1 0-1.7 0.8-1.7 1.7v298.1c0 8.5 6.9 15.4 15.4 15.4h314.5c1 0 1.8-0.9 1.8-1.9-9.2-174.5-153.2-313.3-330-313.3z"
          fill="#33DEB4" opacity=".4" p-id="4773"></path>
    <path d="M871.2 487.8H539.5c-10.6 0-19.2-8.6-19.2-19.2V153.5c0-10.6 8.6-19.2 19.2-19.2l1.7-0.1c187.1 0 340.5 146.5 349.3 333.5 0.2 5.3-1.7 10.4-5.3 14.2-3.7 3.7-8.8 5.9-14 5.9z m-312.5-38.5h291.7c-16.8-150.9-140-267.8-291.7-276.2v276.2z"
          fill="#33DEB4" p-id="4774"></path>
</svg>