<?xml version="1.0" encoding="UTF-8"?>
<svg width="19px" height="19px" viewBox="0 0 19 19" version="1.1" xmlns="http://www.w3.org/2000/svg" xmlns:xlink="http://www.w3.org/1999/xlink">
    <!-- Generator: Sketch 54.1 (76490) - https://sketchapp.com -->
    <title>Icons/选择复制 9</title>
    <desc>Created with Sketch.</desc>
    <defs>
        <path d="M12.8277394,12.5153654 C12.3473124,12.5153654 11.8348569,12.3231945 11.4825437,11.9388529 L6.74233019,7.23066785 C6.03770385,6.52604152 5.97364691,5.43707354 6.61421631,4.66839027 L9.52880706,1.04917319 C9.65692093,0.921059309 9.81706328,0.8249739 10.0092341,0.8249739 C10.2014049,0.8249739 10.3615473,0.88903084 10.4896611,1.01714472 L17.7280953,8.25557888 C17.8562092,8.38369276 17.9202661,8.57586358 17.9202661,8.73600593 C17.9202661,8.92817675 17.8241807,9.0883191 17.6960668,9.21643297 L14.0768498,12.1310237 C13.6604797,12.3872515 13.2441095,12.5153654 12.8277394,12.5153654 L12.8277394,12.5153654 Z M12.3473124,11.0420558 C12.5715117,11.266255 12.9558533,11.2982835 13.2120811,11.0740842 L16.2868142,8.60789205 L10.0412626,2.39436892 L7.5750704,5.46910201 C7.38289958,5.72532977 7.38289958,6.07764294 7.60709887,6.3338707 L12.3473124,11.0420558 L12.3473124,11.0420558 Z M0.496778586,18.8249739 C0.336636237,18.8249739 0.176493889,18.760917 0.0483800097,18.6328031 C-0.0797338693,18.5046892 -0.143790809,18.3445469 -0.143790809,18.152376 L0.0804084795,9.34454685 C0.0804084795,9.05629063 0.272579298,8.83209134 0.528807056,8.73600593 L7.54304193,6.68618386 C7.76724122,6.62212693 8.02346898,6.68618386 8.18361133,6.84632621 L11.8028284,10.4655433 C11.9629708,10.6256856 12.0270277,10.8819134 11.9629708,11.1061127 L9.91314869,18.1203476 C9.84909175,18.3765753 9.592864,18.5687461 9.30460777,18.5687461 L0.496778586,18.8249739 Z M1.3295188,9.85700237 L1.13734798,17.5438351 L8.82418072,17.3516643 L10.617775,11.1381412 L7.54304193,8.06340806 L1.3295188,9.85700237 Z M5.20496364,15.3979276 C4.69250812,15.3979276 4.21208108,15.2057568 3.85976791,14.8214152 C3.50745474,14.469102 3.28325545,13.988675 3.28325545,13.4762195 C3.28325545,12.9637639 3.47542627,12.4833369 3.85976791,12.1310237 C4.21208108,11.7787106 4.69250812,11.5545113 5.20496364,11.5545113 C5.71741916,11.5545113 6.1978462,11.7466821 6.55015937,12.1310237 C6.90247254,12.4833369 7.12667182,12.9637639 7.12667182,13.4762195 C7.12667182,13.988675 6.93450101,14.469102 6.55015937,14.8214152 C6.1978462,15.2057568 5.71741916,15.3979276 5.20496364,15.3979276 Z M5.20496364,12.8356501 C5.04482129,12.8356501 4.88467894,12.899707 4.75656506,13.0278209 C4.62845118,13.1559348 4.56439424,13.3160771 4.56439424,13.4762195 C4.56439424,13.6363618 4.62845118,13.7965041 4.75656506,13.924618 C5.01279282,14.1808458 5.42916293,14.1808458 5.65336222,13.924618 C5.7814761,13.7965041 5.84553303,13.6363618 5.84553303,13.4762195 C5.84553303,13.3160771 5.7814761,13.1559348 5.65336222,13.0278209 C5.52524834,12.899707 5.36510599,12.8356501 5.20496364,12.8356501 L5.20496364,12.8356501 Z M0.945177163,18.3765753 C0.785034814,18.3765753 0.624892465,18.3125184 0.496778586,18.1844045 C0.240550828,17.9281767 0.240550828,17.5438351 0.496778586,17.2876074 L3.85976791,13.924618 C4.11599567,13.6683903 4.50033731,13.6683903 4.75656506,13.924618 C5.01279282,14.1808458 5.01279282,14.5651874 4.75656506,14.8214152 L1.39357574,18.1844045 C1.26546186,18.3125184 1.10531951,18.3765753 0.945177163,18.3765753 Z" id="path-1"></path>
    </defs>
    <g id="电子病历" stroke="none" stroke-width="1" fill="none" fill-rule="evenodd">
        <g id="医学矢量图形编辑器" transform="translate(-418.000000, -177.000000)">
            <g id="Icons/文字复制-3" transform="translate(416.000000, 175.000000)">
                <g id="钢笔" transform="translate(3.000000, 2.000000)">
                    <g id="Color" transform="translate(0.000043, 0.000027)">
                        <mask id="mask-2" fill="white">
                            <use xlink:href="#path-1"></use>
                        </mask>
                        <use id="蒙版" fill="#000000" fill-rule="nonzero" xlink:href="#path-1"></use>
                        <rect fill="#605D5A" mask="url(#mask-2)" x="-3" y="-2" width="24" height="24"></rect>
                    </g>
                </g>
            </g>
        </g>
    </g>
</svg>