<!--<?xml version="1.0" encoding="UTF-8"?>-->
<svg width="20px" height="20px" viewBox="0 0 20 20" version="1.1" xmlns="http://www.w3.org/2000/svg" xmlns:xlink="http://www.w3.org/1999/xlink">
    <!-- Generator: Sketch 54.1 (76490) - https://sketchapp.com -->
    <title>Icons/é€‰æ‹©</title>
    <desc>Created with Sketch.</desc>
    <defs>
        <path d="M2.8255363,2.82445641 L15.2055646,8.81668995 L10.561106,9.15669034 L9.32888195,9.24669045 L9.22999297,10.4766919 L8.84776987,15.2622443 L2.8255363,2.82445641 L2.8255363,2.82445641 Z M0.238886997,-1.6242201e-12 L0.238886999,-1.79625204e-11 C0.106341532,0.000902821345 -0.000374998038,0.109083916 0.000527346762,0.241629187 C0.00076998181,0.277251104 0.00893932921,0.312372434 0.024442609,0.344444541 L9.48222705,19.8655805 C9.52667163,19.9578029 9.61000493,20.0000252 9.69556128,20.0000252 C9.81000595,20.0000252 9.92556155,19.9222474 9.93667289,19.780025 L10.6700077,10.5911276 L19.778905,9.9255721 C20.021128,9.9077943 20.0844601,9.58001701 19.8666829,9.47112626 L0.344433606,0.0244551066 L0.344433623,0.024455115 C0.311653898,0.00813747879 0.275493895,-0.000236515325 0.238878032,1.05552752e-05 L0.238886997,-1.6242201e-12 Z" id="path-1"></path>
    </defs>
    <g id="ç”µå­ç—…åŽ†" stroke="none" stroke-width="1" fill="none" fill-rule="evenodd">
        <g id="åŒ»å­¦çŸ¢é‡å›¾å½¢ç¼–è¾‘å™¨" transform="translate(-418.000000, -143.000000)">
            <g id="Icons/é€‰æ‹©" transform="translate(416.000000, 141.000000)">
                <g id="â†³-ðŸŽ¨Color"></g>
                <g id="é€‰æ‹©" transform="translate(1.500000, 1.500000)"></g>
                <g id="Color" transform="translate(2.000000, 2.000000)">
                    <mask id="mask-2" fill="white">
                        <use xlink:href="#path-1"></use>
                    </mask>
                    <use id="è’™ç‰ˆ" fill="#000000" fill-rule="nonzero" xlink:href="#path-1"></use>
                    <rect fill="#605D5A" mask="url(#mask-2)" x="-1.42857143" y="-1.42857143" width="22.8571429" height="22.8571429"></rect>
                </g>
            </g>
        </g>
    </g>
</svg>